<?xml version="1.0" encoding="UTF-8"?>
<!DOCTYPE svg PUBLIC "-//W3C//DTD SVG 1.1//EN" "http://www.w3.org/Graphics/SVG/1.1/DTD/svg11.dtd">
<!-- Creator: CorelDRAW 2020 (64-Bit) -->
<svg xmlns="http://www.w3.org/2000/svg" xml:space="preserve" width="74.5175mm" height="46.6546mm" version="1.1" style="shape-rendering:geometricPrecision; text-rendering:geometricPrecision; image-rendering:optimizeQuality; fill-rule:evenodd; clip-rule:evenodd"
viewBox="0 0 6672.09 4177.32"
 xmlns:xlink="http://www.w3.org/1999/xlink"
 xmlns:xodm="http://www.corel.com/coreldraw/odm/2003">
 <defs>
  <style type="text/css">
   <![CDATA[
    .fil1 {fill:#656E72}
    .fil0 {fill:#628947}
   ]]>
  </style>
 </defs>
 <g id="__x0023_Layer_x0020_1">
  <metadata id="CorelCorpID_0Corel-Layer"/>
  <path class="fil0" d="M439.58 3413.67c-110.08,0 -203.21,-38.47 -279.71,-115.66 -76.63,-77.05 -114.96,-169.48 -114.96,-277.08l0 -902.35c0,-108.81 38.58,-201.95 115.91,-278.72 77.05,-76.8 169.94,-114.96 278.76,-114.96 109.75,0 202.47,38.57 279,115.9 76.11,77.05 114.4,169.91 114.4,278.06l0 188.05 -257.19 0 0 -192.28c0,-39.83 -14.17,-73.8 -42.27,-101.72 -27.96,-28.11 -61.9,-42 -102.01,-42 -39.14,0 -72.69,13.9 -100.75,42 -27.83,27.93 -41.62,61.9 -41.62,101.3l0 903.58c0,39.55 13.79,73.48 41.62,100.88 28.06,27.68 61.61,41.62 100.75,41.62 40.11,0 74.05,-13.93 102.01,-41.62 28.1,-27.4 42.27,-61.09 42.27,-100.88l0 -323.62 -138.69 0 0 -247.89 395.88 0 0 574.9c0,109.51 -38.58,202.23 -115.91,278.48 -77.18,76.1 -169.63,114.01 -277.49,114.01z"/>
  <path class="fil0" d="M1499.69 2116.14c0,-39.84 -13.93,-73.11 -41.34,-100.51 -27.82,-27.41 -61.61,-41.05 -101.45,-41.05 -39.41,0 -73.38,13.65 -101.73,41.05 -28.1,27.4 -42.27,60.67 -42.27,100.51l0 900.82c0,39.13 14.17,72.44 42.27,99.84 28.35,27.82 62.32,41.58 101.73,41.58 39.84,0 73.63,-13.76 101.45,-41.58 27.41,-27.41 41.34,-60.72 41.34,-99.84l0 -900.82zm-136.22 -389.35l0 0c109.62,0 202.76,38.47 279.8,115.52 76.77,77.18 115.38,169.91 115.38,278.72l0 898.41c0,109.37 -38.61,202.47 -115.91,279.28 -77.05,76.77 -170.18,114.96 -279.28,114.96 -109.51,0 -201.99,-38.47 -278.48,-115.66 -76.11,-77.05 -114.4,-169.76 -114.4,-278.58l0 -898.41c0,-109.48 38.58,-202.48 116.04,-279.28 77.05,-76.76 169.24,-114.96 276.84,-114.96z"/>
  <path class="fil0" d="M2294.69 3413.67c-109.48,0 -201.95,-38.19 -278.44,-114.43 -76.11,-76.07 -114.44,-168.27 -114.44,-276.8l0 -1277.21 242.35 0 0 1275.15c0,39.14 14.17,72.4 42.27,100.08 28.35,27.83 62.32,41.75 101.73,41.75 39.8,0 73.63,-13.92 101.45,-41.75 27.41,-27.68 41.34,-60.95 41.34,-100.08l0 -1275.15 258.96 0 0 1277.21c0,110.45 -38.61,203.18 -115.93,278.44 -77.06,75.16 -170.19,112.79 -279.28,112.79z"/>
  <path class="fil0" d="M3376.9 2142.32c0,-95.86 -47.45,-143.62 -142.09,-143.62l-150.14 0 0 527.07 150.14 0c39.84,0 73.38,-13.75 100.79,-41.86 27.54,-28.1 41.29,-61.65 41.29,-100.78l0 -240.81zm-148.23 -397.1l0 0c138.42,0 240.15,38.3 304.66,114.68 57.25,66.96 85.91,159.68 85.91,278.44l0 239.48c0,116.85 -44.33,215.18 -132.83,295.37l184.36 720.16 -268.49 0 -152.07 -621.57c-7.37,0 -14.7,0 -22.48,0l-143.06 0 0 621.57 -247.76 0 0 -1648.13 391.76 0z"/>
  <polygon class="fil0" points="4036.67,3393.35 3788.74,3393.35 3788.74,1745.22 4144.78,1745.22 4376.34,2927.24 4598.61,1745.22 4941.18,1745.22 4941.18,3393.35 4693.25,3393.35 4693.25,2357.78 4478.07,3393.35 4278.03,3393.35 4036.67,2360.65 "/>
  <polygon class="fil0" points="5091.19,3393.35 5091.19,1745.22 5797.84,1745.22 5797.84,1993.12 5339.08,1993.12 5339.08,2446.28 5674.16,2446.28 5674.16,2694.17 5339.08,2694.17 5339.08,3145.42 5797.84,3145.42 5797.84,3393.35 "/>
  <polygon class="fil0" points="6161.54,1993.12 5897.93,1993.12 5897.93,1745.22 6672.09,1745.22 6672.09,1993.12 6409.32,1993.12 6409.32,3393.35 6161.54,3393.35 "/>
  <path class="fil1" d="M864.09 458.86c-234.84,0 -381.15,873.31 -197.46,639.97 96.53,-122.6 196.61,-448.63 250.62,-611.21 -11.73,-19.23 -29.57,-28.76 -53.17,-28.76zm1186.23 716.74l0 0c17.74,0 36.14,-12.26 55.37,-36.66 19.24,-24.43 38.89,-55.37 58.93,-93.14 19.9,-37.67 38.72,-79.95 56.44,-126.44 17.74,-46.61 34.36,-91.64 49.93,-135.28 15.53,-43.63 28.9,-83.15 39.93,-118.76 11.07,-35.47 19.65,-62.03 25.52,-79.77 3,-10.37 6.25,-20.32 9.95,-29.99 3.67,-9.57 7.75,-18.82 12.26,-27.68 -11.84,-19.23 -29.57,-28.8 -53.31,-28.8 -38.47,0 -74.32,20.6 -107.59,62.08 -33.13,41.44 -62.45,92.02 -87.56,151.89 -25.1,59.87 -45.41,122.75 -60.95,188.62 -15.53,65.7 -24.82,122.33 -27.83,169.63 0,6.01 -0.28,14.87 -1.08,26.6 -0.7,11.87 -0.28,23.32 1.08,34.35 1.5,11.17 4.5,21.16 8.86,29.99 4.5,8.87 11.17,13.38 20.04,13.38zm-1257.28 -168.82l0 0c-223.53,457.11 -549.02,240.43 -328.25,-311.71 54.29,-135.84 190.92,-390.71 368.19,-324.98l110.87 53.31c10.65,-20.84 21.12,-125.58 186.42,6.56 22.76,18.26 -3.56,40.21 -20.04,99.81l-126.41 477.01c211.07,-195.12 266.85,-373.5 303.41,-429.96 17.03,-50.58 35.47,-98.06 54.95,-142.08 7.5,-19.24 17.87,-28.91 31.11,-28.91 10.36,0 22.62,2.31 36.68,6.67 14.04,4.5 28.07,9.95 42.14,16.62 14.04,6.71 26.57,13.79 37.63,21.16 11.03,7.36 20.32,14.03 27.68,19.9 11.87,8.86 14.17,19.65 6.67,32.19 -7.37,12.56 -13.23,24.82 -17.74,36.55 -20.7,53.31 -40.21,110.18 -58.75,170.88 -18.43,60.54 -35.04,121.21 -49.92,181.89 19.23,-42.94 41.05,-87.28 65.45,-133.08 24.41,-45.83 49.93,-90.28 76.49,-133.11 26.6,-42.93 53.62,-82.07 81.02,-117.54 27.26,-35.57 54.25,-64.34 80.85,-86.58 10.37,-10.37 24.41,-15.53 42.28,-15.53 5.86,0 14.73,1.47 26.6,4.47 11.73,3.01 24.69,6.98 38.72,12.15 14.07,5.2 27.4,11.17 39.97,17.87 12.54,6.54 23.32,14.32 32.19,23.18 14.84,14.87 19.2,27.83 13.33,38.86 -5.96,11.07 -14.84,21.16 -26.7,30.02 -38.47,32.43 -66.82,73.06 -85.39,121.9 -18.4,48.81 -29.15,92.44 -32.15,130.91 -1.36,28.07 2.3,48.39 11.17,60.96 8.86,12.53 19.23,18.81 30.96,18.81 23.7,0 46.64,-9.56 68.85,-28.76 3.84,-3.29 7.65,-6.85 11.31,-10.38 8.86,-30.54 19.38,-60.71 31.24,-90.56 28.11,-70.23 63.29,-134.57 105.43,-192.94 42.14,-58.5 90.52,-102.42 145.23,-132.03 17.74,-10.33 35.85,-15.11 54.38,-14.45 18.44,0.84 37.39,4.5 56.6,11.21 19.23,6.53 38.47,15.11 57.7,25.48 19.1,10.37 39.14,20.59 59.87,30.96 2.87,-2.86 5.17,-7.36 6.53,-13.22 1.5,-6.01 3.01,-11.17 4.5,-15.53 8.87,-19.24 19.9,-28.91 33.27,-28.91 10.37,0 22.52,2.31 36.55,6.67 14.03,4.5 27.82,9.95 41.05,16.62 13.38,6.71 25.48,13.79 36.69,21.16 11.03,7.36 20.32,14.03 27.68,19.9 11.84,8.86 14.03,19.65 6.67,32.19 -7.37,12.56 -13.38,24.82 -17.74,36.55 -17.74,48.81 -34.77,100.65 -51,155.31 -16.38,54.71 -31.07,109.38 -44.45,164.18 -13.23,54.71 -25.1,107.45 -35.47,158.6 -10.37,51 -19.23,96.42 -26.6,136.39 -3,16.2 -0.81,25.07 6.71,26.57 7.36,1.5 15.39,-2.17 24.4,-11.03 33.97,-34.1 65.32,-74.32 94.22,-120.96 28.77,-46.5 55.09,-94.92 78.69,-145.22 11.87,-25.24 23.18,-50.35 33.69,-75.13 2.06,-8.62 4.22,-17.21 6.29,-25.8 16.23,-65.85 34.35,-130.21 54.38,-192.94 19.93,-62.88 41.75,-120.96 65.46,-174.13 7.36,-19.24 17.73,-28.91 30.96,-28.91 10.37,0 22.62,2.17 36.69,6.67 13.89,4.36 28.06,9.95 42.14,16.62 14.03,6.71 26.6,13.65 37.63,21.16 11.17,7.36 20.32,14.03 27.68,19.9 11.86,8.86 14.17,19.65 6.66,32.19 -7.36,12.56 -13.22,24.68 -17.73,36.55 -20.7,53.31 -40.22,110.18 -58.75,170.88 -18.4,60.54 -35.05,121.21 -49.93,181.89 19.24,-42.94 41.05,-87.28 65.46,-133.08 24.4,-45.94 49.92,-90.28 76.52,-133.11 26.57,-42.93 53.59,-82.07 81,-117.54 27.4,-35.57 54.29,-64.34 80.99,-86.58 10.37,-10.37 24.3,-15.53 42.14,-15.53 7.37,0 19.24,2.17 35.47,6.67 16.23,4.36 32.85,10.79 49.92,18.82 17.04,8.17 31.77,17.03 44.3,26.74 12.54,9.54 18.82,19.48 18.82,29.85 0,7.36 -2.17,15.53 -6.54,24.4 -4.5,8.86 -8.59,17.74 -12.28,26.6 -3.66,8.86 -6.8,18.96 -12.15,28.9 -114.4,211.67 -302.84,960.45 40.26,385.93 5.02,-8.44 10.37,-14.73 17.73,-17.74 7.48,-3 14.84,-2.86 22.21,0 7.37,2.87 12.95,8.17 16.65,15.54 3.66,7.36 3.42,15.43 1.08,24.43 -30.13,114.81 -184.37,314.85 -310.91,314.85 -38.47,0 -70.24,-12.15 -95.34,-36.55 -25.2,-24.4 -36.27,-51.39 -33.27,-80.99 5.86,-47.34 13.65,-98.35 23.32,-153.01 9.56,-54.67 21.01,-110.18 34.38,-166.39 13.23,-56.17 27.68,-111.26 43.22,-165.26 15.53,-54.01 31.35,-104.6 47.72,-151.9 -25.24,26.57 -50.73,59.6 -76.63,98.73 -25.76,39.13 -51.28,81.65 -76.52,127.48 -25.06,45.81 -48.81,93.15 -70.9,141.94 -22.23,48.84 -42.14,95.76 -59.86,140.9 -17.84,45.14 -32.19,86.85 -43.36,125.29 -11.03,38.47 -17.32,70.23 -18.81,95.47 0,11.73 -2.59,18.82 -7.79,20.99 -5.17,2.19 -11.45,3.28 -18.81,3.28 -13.34,0 -28.07,-3.28 -44.3,-9.95 -16.38,-6.67 -31.53,-15.15 -45.56,-25.52 -14.04,-10.33 -25.9,-21.82 -35.47,-34.35 -9.67,-12.54 -14.45,-24.83 -14.45,-36.56 3.29,-42.41 8.62,-86.99 15.85,-133.78 -21.71,38.62 -44.33,73.91 -67.93,105.96 -28.9,39.27 -58.75,71.46 -89.86,96.56 -31.11,25.1 -62.03,37.63 -93.14,37.63 -19.23,0 -36.69,-4.36 -52.08,-13.23 -15.53,-8.86 -28.91,-20.73 -39.98,-35.43 -11.03,-14.87 -19.2,-31.11 -24.4,-48.83 -5.17,-17.74 -7.09,-35.57 -5.59,-53.31 3.01,-14.73 4.92,-28.77 5.59,-42.14 0.7,-13.23 2.58,-27.3 5.59,-42.14 1.36,-2.87 2.19,-8.07 2.19,-15.57 -32.6,68.08 -69.53,126.83 -110.87,176.47 -41.47,49.51 -87.27,74.18 -137.57,74.18 -44.34,0 -78.69,-12.81 -103.13,-38.72 -24.4,-25.9 -38.85,-58.78 -43.21,-98.72 -7.51,-60.71 -5.59,-127.91 5.44,-201.84 1.25,-7.75 2.47,-15.54 3.83,-23.32 -9,5.06 -18.29,9.15 -27.54,12.15 -19.23,7.5 -41.05,9.01 -65.45,4.5 -24.41,-4.5 -48,-12.96 -71.05,-25.52 -22.93,-12.54 -42.83,-28.91 -59.86,-48.81 -16.93,-19.9 -27.02,-42.56 -29.89,-67.62 -3,-33.97 2.2,-73.53 15.57,-118.66 13.2,-45.14 28.07,-84.69 44.3,-118.62 4.36,-10.37 5.59,-15.29 3.28,-14.45 -2.19,0.66 -5.44,4.08 -9.95,9.95 -35.47,42.93 -72.16,97.22 -109.79,163.09 -37.78,65.7 -72.12,132.66 -103.08,200.73 -31.11,67.9 -57.01,133.08 -77.75,195.11 -20.7,62.08 -32.43,110.88 -35.44,146.48 0,11.73 -2.58,18.82 -7.78,20.99 -5.17,2.19 -11.45,3.28 -18.82,3.28 -13.37,0 -28.1,-3.28 -44.29,-9.95 -16.38,-6.67 -31.53,-15.15 -45.57,-25.52 -14.03,-10.33 -25.9,-21.82 -35.47,-34.35 -9.67,-12.54 -14.45,-24.83 -14.45,-36.56 4.5,-57.67 12.57,-119.46 24.4,-185.16 10.23,-57.01 22.1,-113.87 35.75,-170.88 -19.8,30.13 -36.84,54.14 -45.84,65.17 -218.57,267.17 -205.89,201.96 -302.31,492.58 -12.11,36.41 -72.96,118.48 -136.78,120.12 -63.82,1.65 -179.06,-85.21 -376.92,-83.6 -197.87,1.64 -306.68,114.71 -306.68,114.71 0,0 -63.26,20.99 -43.78,-6.55 99.01,-139.79 231.42,-206.46 342.58,-221.34 139.22,-18.4 208.62,78.83 291.81,49.36 86.19,-30.54 105.43,-164.7 127.38,-245.45 6.67,-26.32 15.11,-60.81 27.54,-106.65z"/>
  <path class="fil0" d="M4749.18 1175.6c17.74,0 36.14,-12.26 55.37,-36.66 19.23,-24.43 38.86,-55.37 58.75,-93.14 20.07,-37.67 38.89,-79.95 56.62,-126.44 17.7,-46.61 34.36,-91.64 49.88,-135.28 15.57,-43.63 28.91,-83.15 39.98,-118.76 11.03,-35.47 19.62,-62.03 25.48,-79.77 3,-10.37 6.29,-20.32 9.95,-29.99 3.71,-9.57 7.79,-18.82 12.29,-27.68 -11.87,-19.23 -29.61,-28.8 -53.31,-28.8 -38.47,0 -74.32,20.6 -107.6,62.08 -33.3,41.44 -62.45,92.02 -87.55,151.89 -25.24,59.87 -45.56,122.75 -61.09,188.62 -15.44,65.7 -24.69,122.33 -27.68,169.63 0,6.01 -0.42,14.87 -1.08,26.6 -0.7,11.87 -0.42,23.32 1.08,34.35 1.5,11.17 4.5,21.16 8.86,29.99 4.5,8.87 11.17,13.38 20.04,13.38zm1328.75 -643.49l0 0c-22.63,16.47 -44.03,39.41 -64.21,68.7 -20.32,29.32 -38.74,61.93 -55.23,98.06 -16.51,35.99 -30.44,74.32 -41.75,114.82 -11.17,40.49 -19.1,79.63 -23.59,117.15 30.02,0 60.43,-10.5 91.25,-31.52 30.83,-21.12 58.51,-48.39 83.3,-82.21 24.82,-33.84 44.76,-72.41 59.73,-116.04 15.02,-43.64 22.52,-87.84 22.52,-132.98 0,-24.01 -7.92,-39.27 -23.74,-46.08 -15.68,-6.71 -31.77,-3.42 -48.28,10.09zm294 581.32l0 0c-90.6,80.87 -178.91,141.28 -283.78,170.6 -81.41,35.71 -188.44,27.54 -263.57,-18.68 -42.83,-26.32 -74.75,-60.57 -95.86,-102.56 -13.65,-27.41 -23.6,-57.54 -29.61,-90.28 -20.59,30.13 -41.61,58.23 -63.15,84.14 -32.57,39.27 -65.17,71.46 -97.64,96.56 -32.57,25.1 -63.54,37.63 -93.15,37.63 -31.07,0 -54.81,-7.37 -71.04,-22.1 -16.23,-14.87 -27.68,-32.85 -34.36,-54.38 -6.7,-21.44 -9.95,-44.76 -9.95,-69.82 0,-25.11 0.66,-48.84 2.17,-71.05 3.56,-39.16 8.34,-81.17 14.45,-125.88 -12.67,25.63 -25.76,51.28 -39.41,77.18 -25.9,48.7 -53.3,92.72 -82.07,131.86 -28.9,39.27 -58.79,71.46 -89.86,96.56 -31.11,25.1 -62.21,37.63 -93.14,37.63 -19.24,0 -36.69,-4.36 -52.23,-13.23 -15.43,-8.86 -28.8,-20.73 -39.84,-35.43 -11.17,-14.87 -19.23,-31.11 -24.4,-48.83 -5.2,-17.74 -7.09,-35.57 -5.59,-53.31 2.96,-14.73 4.75,-28.77 5.59,-42.14 0.66,-13.23 2.58,-27.3 5.44,-42.14 1.5,-2.87 2.3,-8.07 2.3,-15.57 -32.56,68.08 -69.53,126.83 -110.97,176.47 -41.34,49.51 -87.14,74.18 -137.48,74.18 -44.3,0 -78.69,-12.81 -103.09,-38.72 -24.4,-25.9 -38.85,-58.78 -43.35,-98.72 -2.06,-17.87 -3.56,-36.16 -4.09,-55.12 -13.22,20.45 -26.88,39.97 -40.78,58.37 -29.46,39.27 -60.14,71.46 -92.05,96.56 -31.77,25.1 -63.15,37.63 -94.22,37.63 -38.47,0 -70.24,-12.15 -95.34,-36.55 -25.2,-24.4 -36.27,-51.39 -33.27,-80.99 5.86,-47.34 13.65,-98.35 23.18,-153.01 9.71,-54.67 21.16,-110.18 34.53,-166.39 13.2,-56.17 27.65,-111.26 43.22,-165.26 15.53,-53.87 31.35,-104.6 47.72,-151.9 -23.75,26.57 -48.81,59.6 -75.55,98.73 -26.6,39.13 -52.36,81.65 -77.6,127.48 -25.06,45.81 -48.81,93.15 -70.9,141.94 -22.23,48.84 -41.85,95.76 -58.79,140.9 -17.03,45.14 -31.06,86.85 -42.13,125.29 -11.17,38.47 -17.46,70.23 -18.96,95.47 -1.5,11.73 -4.75,18.82 -9.95,20.99 -5.17,2.19 -11.45,3.28 -18.81,3.28 -13.38,0 -28.07,-3.28 -44.3,-9.95 -16.38,-6.67 -31.53,-15.15 -45.56,-25.52 -14.04,-10.33 -25.9,-21.82 -35.47,-34.35 -9.66,-12.54 -14.45,-24.83 -14.45,-36.56 8.87,-99.14 26.32,-206.32 52.09,-321.7 25.93,-115.34 57.42,-223.21 94.39,-323.86 -36.97,39.97 -75.44,93.56 -115.38,160.9 -39.97,67.24 -76.48,136.4 -109.79,207.3 -33.26,71.04 -61.33,139.36 -84.27,205.24 -23.04,65.87 -35.85,117.12 -38.85,154.23 0,11.73 -2.59,18.82 -7.79,20.99 -5.17,2.19 -11.45,3.28 -18.81,3.28 -13.34,0 -28.07,-3.28 -44.45,-9.95 -16.23,-6.67 -31.38,-15.15 -45.41,-25.52 -14.04,-10.33 -25.9,-21.82 -35.47,-34.35 -9.67,-12.54 -14.45,-24.83 -14.45,-36.56 4.5,-57.67 12.57,-119.46 24.43,-185.16 11.84,-65.87 25.91,-131.75 42.15,-197.48 16.23,-65.85 34.35,-130.08 54.38,-192.94 19.93,-62.88 41.75,-120.96 65.32,-174.13 7.5,-19.24 17.74,-28.91 31.11,-28.91 22.24,0 48,7.75 77.6,23.29 29.57,15.57 51.81,29.18 66.54,41.05 11.86,8.86 14.03,19.65 6.66,32.19 -7.36,12.56 -13.22,24.82 -17.73,36.55 -20.7,53.31 -40.36,110.18 -58.75,170.88 -18.53,60.54 -35.19,121.21 -49.93,181.89 19.24,-42.94 41.05,-87.28 65.46,-133.08 24.4,-45.83 49.92,-90.28 76.52,-133.11 26.57,-42.93 53.59,-82.07 81,-117.54 27.26,-35.57 54.29,-64.34 80.85,-86.58 10.37,-10.37 24.43,-15.53 42.14,-15.53 6,0 15.57,1.47 28.9,4.47 13.23,3.01 27.02,7.37 41.05,13.38 14.08,5.86 27.3,12.15 39.98,18.81 12.53,6.71 22.47,14.45 29.84,23.32 7.37,8.86 10.37,16.65 8.86,23.18 -1.5,6.7 -3.66,14.45 -6.66,23.32 -25.1,62.21 -47.34,124.91 -66.54,188.62 -19.09,63.54 -36.97,127.07 -53.2,190.75 19.24,-42.94 41.05,-87.28 65.46,-133.08 24.4,-45.83 49.92,-90.28 76.48,-133.11 26.6,-42.93 53.62,-82.07 81.03,-117.54 27.26,-35.57 54.25,-64.34 80.85,-86.58 11.87,-10.37 25.9,-15.53 42.28,-15.53 8.86,0 21.39,2.31 37.63,6.67 16.23,4.5 32.88,10.79 49.92,18.82 17.04,8.17 31.77,17.03 44.3,26.74 12.71,9.54 18.96,19.48 18.96,29.85 0,4.5 -0.81,8.59 -2.3,12.28 -1.5,3.67 -2.87,7.75 -4.37,12.11 -6,8.86 -10.79,17.74 -14.45,26.6 -3.66,8.86 -6.95,18.53 -9.95,28.9 -17.74,47.34 -34.78,97.23 -51.01,149.73 -16.22,52.5 -31.1,104.59 -44.47,156.29 -13.2,51.81 -25.48,101.73 -36.51,149.73 -11.07,48.14 -19.65,91.35 -25.52,129.83 -3,16.2 -1.08,25.9 5.59,28.77 6.56,3 15.81,-1.36 27.68,-13.23 32.61,-34.1 63.58,-74.32 93.15,-120.96 18.15,-28.35 35.19,-57.53 51.42,-87.42l1.23 -9c11.02,-73.91 30.68,-146.04 58.78,-216.28 28.07,-70.23 63.26,-134.57 105.39,-192.94 42.14,-58.5 90.56,-102.42 145.23,-132.03 17.73,-10.33 35.89,-15.11 54.42,-14.45 18.4,0.84 37.21,4.5 56.45,11.21 19.23,6.53 38.47,15.11 57.67,25.48 19.23,10.37 39.27,20.59 60.01,30.96 2.87,-2.86 5.2,-7.36 6.56,-13.22 1.5,-6.01 3,-11.17 4.5,-15.53 8.83,-19.24 19.9,-28.91 33.27,-28.91 10.37,0 22.48,2.31 36.55,6.67 14.03,4.5 27.78,9.95 41.02,16.62 13.38,6.71 25.52,13.79 36.69,21.16 11.07,7.36 20.32,14.03 27.68,19.9 11.86,8.86 14.03,19.65 6.7,32.19 -7.5,12.56 -13.37,24.82 -17.87,36.55 -17.74,48.81 -34.63,100.65 -51,155.31 -16.23,54.71 -30.97,109.38 -44.34,164.18 -13.33,54.71 -25.06,107.45 -35.43,158.6 -10.37,51 -19.24,96.42 -26.6,136.39 -3.01,16.2 -0.81,25.07 6.53,26.57 7.5,1.5 15.57,-2.17 24.43,-11.03 34.07,-34.1 65.46,-74.32 94.36,-120.96 28.77,-46.5 55.08,-94.92 78.69,-145.22 23.7,-50.35 44.71,-99.81 63.26,-148.65 8.86,-23.74 17.45,-46.08 25.52,-67.38 10.09,-48.81 20.7,-98.03 31.63,-147.81 14.03,-63.54 28.48,-125.6 43.21,-186.28l-48.8 0c-10.23,0 -23.6,-0.41 -39.84,-1.07 -16.38,-0.71 -32.57,-2.59 -48.81,-5.59 -16.37,-2.87 -31.11,-8.49 -44.47,-16.65 -13.23,-8.03 -22.9,-19.48 -28.77,-34.36 -7.36,-17.73 -0.66,-26.6 19.9,-26.6 36.97,0 73.24,-1.92 108.71,-5.59 35.57,-3.7 71.04,-7.78 106.48,-12.14 7.37,-29.57 14.87,-58.51 22.23,-86.58 7.37,-28.1 17.04,-55.36 28.77,-81.96 22.24,-54.81 43.64,-82.08 64.38,-82.08 10.37,0 25.9,2.97 46.64,8.84 20.59,5.86 40.63,13.65 59.86,23.32 19.24,9.57 36.14,19.52 51.01,29.89 14.73,10.37 22.23,20.04 22.23,28.9 0,2.86 -2.34,6.53 -6.7,11.03 -1.5,1.5 -2.59,3 -3.38,4.5 -0.71,1.36 -1.78,2.87 -3.29,4.36 -7.37,8.87 -13.37,17.32 -17.74,25.52 -4.49,8.17 -8.17,17.46 -11.03,27.68 -4.5,11.87 -8.62,23.05 -12.28,33.27 -3.66,10.37 -6.95,21.54 -9.95,33.27 33.93,0 66.54,1.92 97.64,5.58 30.93,3.71 53.87,10.79 68.7,21.16 2.87,1.36 6.29,5.86 9.98,13.23 3.67,7.33 6.67,15.96 8.87,25.48 2.16,9.67 4.08,18.96 5.58,27.83 1.5,8.86 2.17,16.22 2.17,22.1 0,11.86 -3,20.04 -8.86,24.4l-6.67 0c-32.47,-11.87 -67.65,-18.81 -105.43,-21.01 -37.63,-2.3 -73.48,-3.38 -107.45,-3.38 -19.23,65.03 -38.19,133.49 -56.59,205.24 -18.53,71.7 -35.47,142.36 -51,211.76 -15.53,69.54 -29.57,136.08 -42.14,199.65 -12.54,63.54 -21.82,120.54 -27.83,170.85 -2.86,25.1 -1.77,39.55 3.43,43.26 5.16,3.66 15.81,-2.62 32.18,-18.96 32.43,-33.97 64.62,-74.19 96.42,-120.83 17.46,-25.66 34.49,-51.42 50.97,-77.75 1.64,-35.71 6.7,-71.88 15.01,-108.25 12.67,-56.49 31.11,-111.99 55.09,-166.8 24.01,-54.81 52.5,-103.24 85.63,-145.23 33.02,-41.99 68.59,-76.24 106.93,-102.53 38.33,-26.18 77.71,-39.41 118.24,-39.41 21.12,0 45.39,6.38 73.21,19.2 27.83,12.71 53.72,29.61 77.75,50.62 23.98,20.98 44.3,44.29 60.81,69.82 16.51,25.63 24.82,50.3 24.82,74.32 0,52.61 -13.51,101.45 -40.5,146.46 -27.16,44.99 -61.65,84.55 -103.65,118.23 -42.14,33.79 -87.55,60.12 -136.36,78.79 -48.84,18.82 -94.92,28.24 -138.42,28.24 -3.14,60.15 5.58,111.16 25.76,153.15 21.82,45.28 70.24,47.45 118.66,47.45 114.92,0 203.93,-91.13 287.06,-158.15 0,0 33.28,-37.39 70.11,-15.41 39.88,31.58 28.97,62.13 -20.64,103.74z"/>
  <path class="fil1" d="M5811.88 3880.45l0 292.75 38.47 0 0 -363.93 -56.59 0 -57.81 290.59 -59.73 -290.59 -56.73 0 0 363.93 35.43 0 0 -290.16 60.29 289.64 38.99 0 57.67 -292.23zm-466.36 -71.18l0 0 -40.08 0 0 276c0,55.09 25.48,92.06 81.13,92.06 56.17,0 81.69,-36.97 81.69,-92.06l0 -276 -38.05 0 0 278.17c0,32.74 -12.96,52.5 -42.14,52.5 -29.61,0 -42.56,-19.76 -42.56,-52.5l0 -278.17zm-232.5 363.93l0 0 40.62 0 0 -363.93 -40.62 0 0 363.93zm-191.73 -292.75l0 0 0 292.75 38.44 0 0 -363.93 -56.73 0 -57.67 290.59 -59.87 -290.59 -56.59 0 0 363.93 35.33 0 0 -290.16 60.25 289.64 39 0 57.84 -292.23zm-450.3 90l0 0 0 -124.39 109.09 0 0 -36.8 -149.73 0 0 363.93 149.73 0 0 -36.93 -109.09 0 0 -129.42 88.91 0 0 -36.41 -88.91 0zm-316.64 10.36l0 0 0 -134.74 39.41 0c30.27,0 42.14,17.21 42.14,49.92l0 34.91c0,39.56 -19.23,49.92 -51.42,49.92l-30.13 0zm-40.63 -171.54l0 0 0 363.93 40.63 0 0 -155.45 28.49 0c33.83,0 53.06,12.95 53.06,54l0 57.29c0,24.41 2.02,33.69 6.8,44.16l41.06 0c-6.81,-12.53 -7.23,-27.54 -7.23,-43.74l0 -56.62c0,-38.99 -12.57,-65.98 -45.84,-75.93 31.25,-9.85 45.28,-34.77 45.28,-74.88l0 -29.57c0,-54.14 -23.98,-83.19 -81.13,-83.19l-81.13 0zm-264.16 183.95l0 0 0 -147.15 39.03 0c29.71,0 41.57,16.64 41.57,49.92l0 48.42c0,34.77 -14.59,48.81 -44.71,48.81l-35.89 0zm-40.5 -183.95l0 0 0 363.93 40.5 0 0 -143.58 35.89 0c57.81,0 84.79,-30.13 84.79,-87.79l0 -43.64c0,-55.13 -24.4,-88.92 -81.65,-88.92l-79.53 0zm-309.4 -3.7l0 0c-54.56,0 -80.61,34.77 -80.61,90.97 0,102.39 121.66,110.32 121.66,191.31 0,32.89 -13.51,52.08 -42.56,52.08 -29.18,0 -42.69,-19.2 -42.69,-52.08l0 -22.76 -37.91 0 0 20.74c0,55.08 25.93,90.93 81.54,90.93 55.65,0 82.25,-35.85 82.25,-90.93 0,-102.43 -122.18,-110.21 -122.18,-191.91 0,-32.15 12.39,-51.39 41.58,-51.39 29.04,0 41.61,19.23 41.61,51.94l0 12.02 38.44 0 0 -9.96c0,-55.08 -26.05,-90.97 -81.13,-90.97zm-334.79 164.88l0 0 0 -124.39 109.09 0 0 -36.8 -149.72 0 0 363.93 149.72 0 0 -36.93 -109.09 0 0 -129.42 88.91 0 0 -36.41 -88.91 0zm-329.2 -91.51l0 0 93.14 294.25 42.04 0 0 -363.93 -35.89 0 0 263.05 -84.14 -263.05 -51.56 0 0 363.93 36.41 0 0 -294.25zm-312.93 16.1l0 0c0,-32.74 14.03,-52.5 43.08,-52.5 29.74,0 43.22,19.76 43.22,52.5l0 192.39c0,33.31 -13.48,52.5 -43.22,52.5 -29.05,0 -43.08,-19.2 -43.08,-52.5l0 -192.39zm-40.11 190.22l0 0c0,55.09 27.54,91.5 83.19,91.5 56.17,0 83.72,-36.41 83.72,-91.5l0 -188.2c0,-55.61 -27.55,-91.5 -83.72,-91.5 -55.65,0 -83.19,35.89 -83.19,91.5l0 188.2zm-190.79 87.93l0 0 40.51 0 0 -363.93 -40.51 0 0 363.93zm-228.79 -367.63l0 0c-54.56,0 -80.61,34.77 -80.61,90.97 0,102.39 121.63,110.32 121.63,191.31 0,32.89 -13.48,52.08 -42.52,52.08 -29.18,0 -42.69,-19.2 -42.69,-52.08l0 -22.76 -37.92 0 0 20.74c0,55.08 25.9,90.93 81.55,90.93 55.65,0 82.21,-35.85 82.21,-90.93 0,-102.43 -122.18,-110.21 -122.18,-191.91 0,-32.15 12.43,-51.39 41.61,-51.39 29.05,0 41.58,19.23 41.58,51.94l0 12.02 38.47 0 0 -9.96c0,-55.08 -26.05,-90.97 -81.13,-90.97zm-351.02 3.7l0 0 -39.97 0 0 276c0,55.09 25.52,92.06 81.17,92.06 56.02,0 81.55,-36.97 81.55,-92.06l0 -276 -37.92 0 0 278.17c0,32.74 -12.95,52.5 -42.14,52.5 -29.6,0 -42.69,-19.76 -42.69,-52.5l0 -278.17zm-286.37 169.49l0 0 0 -132.69 103.89 0 0 -36.8 -144.52 0 0 363.93 40.63 0 0 -157.61 83.57 0 0 -36.83 -83.57 0zm-329.2 -99.82l0 0 93 294.25 42.14 0 0 -363.93 -35.85 0 0 263.05 -84.14 -263.05 -51.56 0 0 363.93 36.41 0 0 -294.25zm-229.78 294.25l0 0 40.49 0 0 -363.93 -40.49 0 0 363.93z"/>
 </g>
</svg>
